<?xml version="1.0" encoding="UTF-8"?>
<svg id="Layer_1" data-name="Layer 1" xmlns="http://www.w3.org/2000/svg" viewBox="0 0 1920 1080">
  <defs>
    <style>
      .cls-1 {
        fill: #0f192c;
      }

      .cls-1, .cls-2 {
        stroke-width: 0px;
      }

      .cls-2 {
        fill: #c18f2c;
      }
    </style>
  </defs>
  <g>
    <path class="cls-1" d="M742.94,555.32h-52.93l-17.02,45.6h30.82v6.34h-60.39v-6.34h22.99l60.76-164.14h3.85l58.28,164.14h22.37v6.34h-79.4v-6.34h26.96l-16.28-45.6ZM692.37,548.99h48.33l-23.48-66.73h-.5l-24.35,66.73Z"/>
    <path class="cls-1" d="M884.81,530.97v69.96h26.96v6.34h-83v-6.34h26.47v-153.95h-26.47v-6.34h85.86c19.38,0,33.99,4.31,43.8,12.92,9.82,8.62,14.73,19.22,14.73,31.81s-4.95,23.76-14.85,32.49c-9.9,8.74-26.36,13.11-49.39,13.11h-24.11ZM884.81,446.97v77.53h16.03c8.37,0,15.32-.7,20.88-2.11,5.55-1.41,10.33-5.14,14.35-11.18,4.02-6.05,6.03-15.41,6.03-28.08,0-11.19-1.76-19.41-5.28-24.67-3.52-5.26-7.68-8.49-12.49-9.69s-10.77-1.8-17.89-1.8h-21.62Z"/>
    <path class="cls-1" d="M1012.37,600.92v-153.95h-26.22v-6.34h91.33c11.93,0,21.72,1.03,29.39,3.1,7.66,2.07,14.27,6.36,19.82,12.86,5.55,6.51,8.33,13.98,8.33,22.43,0,10.52-4.06,19.05-12.18,25.6-8.12,6.55-21.87,11.48-41.25,14.79v.62c13.92,2.74,25.33,8.04,34.23,15.91,8.9,7.87,13.36,21.2,13.36,40.01,0,10.77,1.26,17.67,3.79,20.69,2.52,3.02,6.02,4.54,10.5,4.54,2.9,0,6.38-.58,10.44-1.74v6.09c-7.21,2.48-14.17,3.72-20.88,3.72-13.67,0-23.32-3.81-28.95-11.43-5.64-7.62-8.37-15.08-8.2-22.37l.5-21.12c0-7.37-2.34-14.64-7.02-21.81-4.68-7.17-15.31-10.75-31.87-10.75h-15.53v79.15h26.22v6.34h-82.01v-6.34h26.22ZM1041.95,446.97v68.96h22.36c9.61,0,16.94-.64,21.99-1.93,5.05-1.28,9.09-4.64,12.11-10.07,3.02-5.42,4.54-14.06,4.54-25.91,0-9.69-1.54-16.77-4.6-21.25-3.07-4.47-6.77-7.23-11.12-8.26-4.35-1.03-10.05-1.55-17.08-1.55h-28.21Z"/>
    <path class="cls-1" d="M1200.08,600.92v-153.95h-27.21v-6.34h84.25v6.34h-27.46v153.95h27.46v6.34h-84.25v-6.34h27.21Z"/>
    <path class="cls-1" d="M1306.43,600.92v-153.95h-26.09v-6.34h81.88v6.34h-26.22v153.95h26.22v6.34h-81.88v-6.34h26.09ZM1380,440.63h62.87v6.34h-25.47l-55.17,56.66,80.64,97.29h16.28v6.34h-81.89v-6.34h28.7l-67.1-82.26,69.46-71.7h-28.33v-6.34Z"/>
    <path class="cls-1" d="M1534.76,611.11c-21.54,0-39.82-9.03-54.86-27.09-15.03-18.06-22.56-37.36-22.56-57.9,0-24.68,7.89-45.75,23.67-63.18,15.78-17.44,34.11-26.16,54.98-26.16,19.63,0,37.24,8.86,52.81,26.59,15.58,17.73,23.36,37.86,23.36,60.39s-7.81,43.55-23.42,61.07c-15.62,17.52-33.61,26.28-53.99,26.28ZM1535.25,443.12c-9.11,0-17.29,2.09-24.54,6.28-7.25,4.18-12.17,11.45-14.79,21.81-2.61,10.36-3.91,28.41-3.91,54.18,0,17.81.74,32.02,2.23,42.62,1.49,10.6,5.28,19.38,11.37,26.34,6.09,6.96,15.64,10.44,28.64,10.44,7.95,0,15.92-2.11,23.92-6.34,7.99-4.23,13.21-12.53,15.66-24.91,2.44-12.38,3.66-31.42,3.66-57.09,0-23.28-1.51-39.35-4.53-48.21-3.02-8.86-7.87-15.26-14.54-19.2-6.67-3.94-14.39-5.9-23.17-5.9Z"/>
    <path class="cls-1" d="M1734.34,438.77l.74,43.24h-5.84c-8.28-25.93-22.91-38.89-43.87-38.89-11.6,0-20.61,3.21-27.02,9.63-6.42,6.42-9.63,13.07-9.63,19.94,0,6.38,2.67,11.81,8.02,16.28,5.34,4.47,15.09,7.93,29.26,10.38,14.17,2.44,24.96,5.43,32.37,8.94,7.41,3.53,13.67,9.38,18.76,17.59,5.09,8.2,7.64,17.6,7.64,28.21,0,16.32-5.32,29.9-15.97,40.75-10.64,10.85-23.84,16.28-39.58,16.28-12.84,0-25.64-4.76-38.39-14.29l-11.68,10.44h-4.35v-46.6h5.35c4.88,14.66,11.72,25.68,20.5,33.05,8.78,7.37,18.39,11.06,28.83,11.06s19.86-3.42,28.52-10.25c8.65-6.84,12.98-15.47,12.98-25.91,0-8.78-3-16.17-9.01-22.18-6.01-6.01-15.74-10.15-29.2-12.43-13.46-2.28-23.79-4.93-31-7.95-7.2-3.02-13.38-8.28-18.51-15.78-5.14-7.5-7.7-15.8-7.7-24.91,0-12.59,4.47-23.83,13.42-33.74,8.95-9.89,21.08-14.85,36.41-14.85,12.84,0,24.81,4.06,35.91,12.17,3.06-2.9,5.71-6.29,7.95-10.19h5.09Z"/>
  </g>
  <g>
    <path class="cls-1" d="M950.97,643.48l-27.62,61.97h-4.51l-27.62-61.97h4.96l25.06,56.13,25.05-56.13h4.69Z"/>
    <path class="cls-1" d="M1030.39,701.39v4.07h-42.76v-61.97h41.43v4.07h-36.92v24.43h33.02v3.98h-33.02v25.41h38.25Z"/>
    <path class="cls-1" d="M1120.04,643.48v61.97h-3.72l-42.23-53.83v53.83h-4.51v-61.97h3.8l42.14,53.83v-53.83h4.51Z"/>
    <path class="cls-1" d="M1178.93,647.56h-22.31v-4.07h49.14v4.07h-22.31v57.9h-4.51v-57.9Z"/>
    <path class="cls-1" d="M1242.02,679.16v-35.68h4.51v35.5c0,15.49,7.44,22.75,20.37,22.75s20.27-7.26,20.27-22.75v-35.5h4.51v35.68c0,17.71-9.47,26.74-24.88,26.74s-24.79-9.03-24.79-26.74Z"/>
    <path class="cls-1" d="M1379.99,705.46l-14.78-20.72c-1.95.26-3.9.44-6.02.44h-17.71v20.28h-4.51v-61.97h22.22c15.58,0,24.97,7.79,24.97,20.9,0,9.82-5.31,16.64-14.52,19.39l15.49,21.69h-5.14ZM1359.19,681.2c13.28,0,20.37-6.2,20.37-16.82s-7.08-16.82-20.37-16.82h-17.71v33.64h17.71Z"/>
    <path class="cls-1" d="M1468.51,701.39v4.07h-42.76v-61.97h41.43v4.07h-36.92v24.43h33.02v3.98h-33.02v25.41h38.24Z"/>
  </g>
  <g>
    <path class="cls-2" d="M338.5,557.75h0c0,21.81-17.68,39.5-39.5,39.5h0c21.81,0,39.5,17.68,39.5,39.5h0c0-21.81,17.68-39.49,39.49-39.49h0c-21.81,0-39.49-17.68-39.49-39.5Z"/>
    <path class="cls-2" d="M344.76,753.25v9.39h-169.54v-9.39c15.89-2.07,28.56-5.99,37.95-11.63,9.44-5.7,17.22-13.24,23.27-22.92,6.05-9.68,12.9-23.44,20.44-41.46l4.2-10.25,9.16,20.44c-4.49,13.07-6.1,23.44-4.95,31.27,1.5,9.68,8.29,17.16,20.44,22.57,12.15,5.47,31.79,9.44,59.03,11.98Z"/>
    <path class="cls-2" d="M642.49,753.25v9.39h-233v-9.39c22.98-2.53,39.85-6.68,50.5-12.61,10.71-5.82,16.64-13.47,17.91-22.92,1.27-9.39-1.27-21.19-7.49-35.47l-101.18-234.27-9.56-21.48,44.75-109.13h1.9l158.25,359.23c8.41,19.69,15.55,34.15,21.36,43.36,5.87,9.21,13.01,16.41,21.37,21.65,8.35,5.24,20.1,9.1,35.19,11.63Z"/>
  </g>
</svg>