
        <svg xmlns="http://www.w3.org/2000/svg" xmlns:xlink="http://www.w3.org/1999/xlink" version="1.1" width="3162.208309618669" 
        height="914.8832861806405" viewBox="0 0 3162.208309618669 914.8832861806405">
			<rect fill="#194b6a" width="3162.208309618669" height="914.8832861806405"/>
			<g transform="scale(8.11041548093341) translate(10, 10)">
				<defs id="SvgjsDefs1051"></defs><g id="SvgjsG1052" featureKey="S6ay6y-0" transform="matrix(1.4168473912622315,0,0,1.4168473912622315,0.14168460400512642,0.2833705592212201)" fill="#3fc1c9"><g xmlns="http://www.w3.org/2000/svg"><rect x="11.1" y="13.9" width="16.9" height="1.5"></rect><rect x="11.1" y="20.7" width="25.2" height="1.5"></rect><rect x="11.1" y="27.5" width="25.2" height="1.5"></rect><path d="M56.1,37.5v-6.7c0-7.9-6.2-14.4-14.1-14.8V8.9l-9.1-9.1H5.3v4.5h-5.4v37.6h37v-5.4h5v-19c7,0.4,12.6,6.2,12.6,13.3v6.7   c-5,0.3-9,4.4-9,9.5v8.8c0,5.2,4.3,9.5,9.5,9.5h0.4c5.2,0,9.5-4.3,9.5-9.5V47C65.1,41.9,61.1,37.8,56.1,37.5z M33.3,2.3l6.1,6.1   h-6.1V2.3z M35.5,40.3h-34V5.7h3.9v30.7h30.2V40.3z M6.8,34.9V1.2h25V10h8.7v25H6.8z M63.6,55.7c0,4.4-3.6,8-8,8h-0.4   c-4.4,0-8-3.6-8-8V47c0-4.4,3.6-8,8-8h0.4c4.4,0,8,3.6,8,8V55.7z"></path><path d="M55.3,43c-1.6,0-2.9,1.3-2.9,2.9c0,1.6,1.3,2.9,2.9,2.9c1.6,0,2.9-1.3,2.9-2.9C58.2,44.3,56.9,43,55.3,43z M55.3,47.3   c-0.8,0-1.4-0.6-1.4-1.4c0-0.8,0.6-1.4,1.4-1.4c0.8,0,1.4,0.6,1.4,1.4C56.7,46.7,56.1,47.3,55.3,47.3z"></path></g></g><g id="SvgjsG1053" featureKey="j5pGhi-0" transform="matrix(4.559465883245107,0,0,4.559465883245107,109.9518589624526,-16.724250384925327)" fill="#3fc1c9"><path d="M3.584 4.746 l1.3965 0 l0 12.666 q-0.13671875 1.318359375 -0.966796875 2.705078125 t-2.5977 3.3887 q-0.654296875 -0.751953125 -0.966796875 -1.044921875 q1.171875 -1.201171875 2.172851563 -2.807617188 t0.96191 -3.1299 l0 -11.777 z M7.50004375 8.477 l1.3867 0 l0 5 q0 1.8359375 0.1953125 2.51953125 q0.29296875 0.986328125 1.123046875 1.557617188 t1.9922 0.57129 q1.15234375 0 1.953125 -0.556640625 t1.1035 -1.4648 q0.21484375 -0.615234375 0.21484375 -2.626953125 l0 -5 l1.4063 0 l0 5.2637 q0 2.216796875 -0.5224609375 3.334960938 t-1.5576 1.748 t-2.5977 0.62988 q-1.572265625 0 -2.6171875 -0.6298828125 t-1.5625 -1.7676 t-0.51758 -3.4229 l0 -5.1563 z M19.912071875 15.3809 l-0.019531 -1.1426 q-0.029296875 -0.83984375 0.068359375 -1.42578125 q0.21484375 -1.845703125 0.9375 -2.705078125 q0.703125 -0.751953125 1.435546875 -1.162109375 q1.2109375 -0.517578125 2.763671875 -0.48828125 q1.2109375 0 2.241210938 0.6103515625 t1.4697 1.6406 t0.43945 3.2275 l0 5.5078 l-1.3672 0 l0 -5.1074 q0 -1.85546875 -0.15625 -2.48046875 q-0.244140625 -1.064453125 -0.966796875 -1.508789063 t-2.1387 -0.44434 q-1.25 0 -2.2265625 0.72265625 t-0.9082 1.9727 q-0.185546875 0.80078125 -0.185546875 2.919921875 l0 3.9258 l-1.3867 0 l0 -4.0625 z M32.665996875 4.3260000000000005 q0.46875 0 0.8056640625 0.33203125 t0.33691 0.80078 t-0.33691 0.80566 t-0.80566 0.33691 t-0.80078 -0.33691 t-0.33203 -0.80566 t0.33203 -0.80078 t0.80078 -0.33203 z M31.982396875 8.73 l1.377 0 l0 10.713 l-1.377 0 l0 -10.713 z M46.6211125 4.901999999999999 l6.748 14.482 l-1.543 0 l-2.2754 -4.7754 l-6.25 0 l-2.2559 4.7754 l-1.6211 0 l6.8457 -14.482 l0.35156 0 z M46.4453125 7.968999999999999 l-2.5 5.2539 l4.9609 0 z M55.869121875 4.3260000000000005 q0.46875 0 0.8056640625 0.33203125 t0.33691 0.80078 t-0.33691 0.80566 t-0.80566 0.33691 t-0.80078 -0.33691 t-0.33203 -0.80566 t0.33203 -0.80078 t0.80078 -0.33203 z M55.185521875 8.73 l1.377 0 l0 10.713 l-1.377 0 l0 -10.713 z"></path></g>
			</g>
		</svg>
	